<svg width="72" height="72" viewBox="0 0 72 72" fill="none" xmlns="http://www.w3.org/2000/svg">
<path fill-rule="evenodd" clip-rule="evenodd" d="M35.6255 9C33.2545 14.8302 31.8244 18.6438 29.1845 24.3007C30.8031 26.0214 32.7898 28.0252 36.0162 30.2883C32.5475 28.8568 30.1814 27.4196 28.4132 25.9282C25.0347 32.9986 19.7415 43.0701 9 62.4268C17.4425 57.5386 23.9869 54.5249 30.086 53.375C29.8241 52.2453 29.6752 51.0233 29.6854 49.7482L29.6954 49.477C29.8293 44.0523 32.643 39.8807 35.9761 40.164C39.3092 40.4472 41.9 45.077 41.766 50.5017C41.7408 51.5225 41.626 52.5044 41.4254 53.4152C47.4583 54.5988 53.9328 57.6047 62.261 62.4268C60.6189 59.3946 59.1531 56.6613 57.7533 54.0582C55.5485 52.3443 53.2487 50.1136 48.5576 47.6988C51.782 48.5391 54.0906 49.5085 55.8902 50.5921C41.6584 24.0176 40.5059 20.4864 35.6255 9Z" fill="url(#paint0_linear_1413_1353)"/>
<defs>
<linearGradient id="paint0_linear_1413_1353" x1="18.6377" y1="2.77914" x2="61.3673" y2="3.35572" gradientUnits="userSpaceOnUse">
<stop stop-color="#00E6CF"/>
<stop offset="0.489583" stop-color="#00C4E3"/>
<stop offset="1" stop-color="#00A1F8"/>
</linearGradient>
</defs>
</svg>
