<svg width="74" height="74" viewBox="0 0 74 74" fill="none" xmlns="http://www.w3.org/2000/svg">
<path d="M68.4738 6.54513C71.8755 9.94514 62.4451 24.8908 60.8513 26.4855C59.2571 28.0773 55.2084 26.6131 51.8076 23.2118C48.4063 19.8114 46.941 15.7619 48.5352 14.1677C50.129 12.5726 65.0734 3.14386 68.4738 6.54513Z" fill="url(#paint0_linear_1425_1638)"/>
<path d="M20.7735 10.1429C15.5802 7.19589 8.19153 3.91848 5.84065 6.26927C3.45844 8.65028 6.85634 16.2061 9.83373 21.4089C12.4832 16.8018 16.2529 12.924 20.7735 10.1429Z" fill="url(#paint1_linear_1425_1638)"/>
<path d="M63.2865 25.3123C63.7643 26.9347 63.6782 28.2747 62.9032 29.0484C61.0911 30.8608 56.198 28.9319 51.7874 24.7338C51.4788 24.4579 51.174 24.1712 50.8738 23.8705C49.2792 22.2751 48.0381 20.5759 47.2442 19.0119C45.6991 16.2409 45.3127 13.7931 46.4806 12.6255C47.1169 11.9894 48.1351 11.816 49.377 12.0398C50.1869 11.528 51.1425 10.957 52.1909 10.3725C47.9281 8.14937 43.0816 6.89316 37.9395 6.89316C20.887 6.89316 7.06152 20.7157 7.06152 37.7703C7.06152 54.8224 20.887 68.6467 37.9395 68.6467C54.9926 68.6467 68.8177 54.8224 68.8177 37.7703C68.8177 32.2631 67.3726 27.0985 64.8467 22.6215C64.3013 23.6174 63.7706 24.5301 63.2865 25.3123Z" fill="url(#paint2_linear_1425_1638)"/>
<defs>
<linearGradient id="paint0_linear_1425_1638" x1="51.7482" y1="29.6108" x2="68.8505" y2="29.3794" gradientUnits="userSpaceOnUse">
<stop stop-color="#00E6CF"/>
<stop offset="0.489583" stop-color="#00C4E3"/>
<stop offset="1" stop-color="#00A1F8"/>
</linearGradient>
<linearGradient id="paint1_linear_1425_1638" x1="7.88564" y1="23.2652" x2="20.5095" y2="23.0965" gradientUnits="userSpaceOnUse">
<stop stop-color="#00E6CF"/>
<stop offset="0.489583" stop-color="#00C4E3"/>
<stop offset="1" stop-color="#00A1F8"/>
</linearGradient>
<linearGradient id="paint2_linear_1425_1638" x1="18.2365" y1="75.8371" x2="67.7814" y2="75.1665" gradientUnits="userSpaceOnUse">
<stop stop-color="#00E6CF"/>
<stop offset="0.489583" stop-color="#00C4E3"/>
<stop offset="1" stop-color="#00A1F8"/>
</linearGradient>
</defs>
</svg>
