<svg width="72" height="72" viewBox="0 0 72 72" fill="none" xmlns="http://www.w3.org/2000/svg">
<g clip-path="url(#clip0_1413_1526)">
<path fill-rule="evenodd" clip-rule="evenodd" d="M22.3891 36.8152L39.4522 66.3727L31.6106 66.4463L27.0552 58.5053L22.4672 66.4038L18.571 66.4023L16.5755 62.9547L23.1119 51.7154L18.4719 43.6408L22.3891 36.8152Z" fill="#5277C3" fill-opacity="0.77"/>
<path fill-rule="evenodd" clip-rule="evenodd" d="M28.5478 24.6401L11.4818 54.196L7.49729 47.4418L12.0967 39.5262L2.96235 39.5022L1.01562 36.1272L3.00354 32.6752L16.0053 32.7163L20.6781 24.6606L28.5478 24.6401Z" fill="#7EBAE4" fill-opacity="0.77"/>
<path fill-rule="evenodd" clip-rule="evenodd" d="M29.8571 48.2666L63.9862 48.2683L60.1291 55.096L50.9743 55.0707L55.5207 62.9932L53.5712 66.3666L49.5878 66.3711L43.1224 55.0907L33.8096 55.0718L29.8571 48.2666Z" fill="#7EBAE4" fill-opacity="0.77"/>
<path fill-rule="evenodd" clip-rule="evenodd" d="M49.7214 35.3159L32.6583 5.75837L40.4998 5.68481L45.0553 13.6258L49.6432 5.72725L53.5394 5.72878L55.5349 9.17635L48.9985 20.4157L53.6385 28.4903L49.7214 35.3159Z" fill="#7EBAE4" fill-opacity="0.77"/>
<path fill-rule="evenodd" clip-rule="evenodd" d="M22.3891 36.8152L39.4522 66.3727L31.6106 66.4463L27.0552 58.5053L22.4672 66.4038L18.571 66.4023L16.5755 62.9547L23.1119 51.7154L18.4719 43.6408L22.3891 36.8152Z" fill="#5277C3" fill-opacity="0.77"/>
<path fill-rule="evenodd" clip-rule="evenodd" d="M42.2081 23.7897L8.07892 23.7881L11.936 16.9603L21.0908 16.9857L16.5444 9.06311L18.4939 5.6897L22.4773 5.6853L28.9427 16.9657L38.2555 16.9846L42.2081 23.7897Z" fill="#5277C3" fill-opacity="0.77"/>
<path fill-rule="evenodd" clip-rule="evenodd" d="M43.5395 47.4846L60.6055 17.9287L64.59 24.6829L59.9906 32.5986L69.1249 32.6226L71.0717 35.9975L69.0838 39.4495L56.082 39.4084L51.4092 47.4641L43.5395 47.4846Z" fill="#5277C3" fill-opacity="0.77"/>
<path fill-rule="evenodd" clip-rule="evenodd" d="M22.4093 36.7961L39.4724 66.3537L31.6309 66.4272L27.0754 58.4862L22.4875 66.3848L18.5913 66.3833L16.5958 62.9357L23.1322 51.6964L18.4922 43.6218L22.4093 36.7961Z" fill="#58E1FF"/>
<path fill-rule="evenodd" clip-rule="evenodd" d="M28.568 24.6209L11.502 54.1767L7.51752 47.4225L12.1169 39.5069L2.98258 39.4829L1.03581 36.1079L3.02373 32.656L16.0255 32.697L20.6983 24.6413L28.568 24.6209Z" fill="#58E1FF"/>
<path fill-rule="evenodd" clip-rule="evenodd" d="M29.8773 48.2475L64.0064 48.2492L60.1494 55.077L50.9945 55.0516L55.5409 62.9742L53.5915 66.3476L49.608 66.352L43.1427 55.0716L33.8299 55.0527L29.8773 48.2475Z" fill="#58E1FF"/>
<path fill-rule="evenodd" clip-rule="evenodd" d="M49.7417 35.2969L32.6786 5.73933L40.5201 5.66578L45.0756 13.6068L49.6635 5.70821L53.5597 5.70975L55.5552 9.15731L49.0188 20.3967L53.6588 28.4712L49.7417 35.2969Z" fill="#58E1FF"/>
<path fill-rule="evenodd" clip-rule="evenodd" d="M22.4093 36.7961L39.4724 66.3537L31.6309 66.4272L27.0754 58.4862L22.4875 66.3848L18.5913 66.3833L16.5958 62.9357L23.1322 51.6964L18.4922 43.6218L22.4093 36.7961Z" fill="#4DCAFF" fill-opacity="0.8"/>
<path fill-rule="evenodd" clip-rule="evenodd" d="M42.2032 23.7774L8.07407 23.7757L11.9311 16.9479L21.086 16.9733L16.5396 9.05072L18.489 5.67729L22.4725 5.6729L28.9378 16.9533L38.2506 16.9722L42.2032 23.7774Z" fill="#4DCAFF" fill-opacity="0.8"/>
<path fill-rule="evenodd" clip-rule="evenodd" d="M43.5442 47.4673L60.6102 17.9114L64.5947 24.6656L59.9953 32.5813L69.1296 32.6053L71.0764 35.9802L69.0885 39.4322L56.0867 39.3911L51.4139 47.4468L43.5442 47.4673Z" fill="#4DCAFF" fill-opacity="0.8"/>
</g>
<defs>
<clipPath id="clip0_1413_1526">
<rect width="72" height="72" fill="white"/>
</clipPath>
</defs>
</svg>
