<svg width="74" height="74" viewBox="0 0 74 74" fill="none" xmlns="http://www.w3.org/2000/svg">
<path d="M57.2005 29.684C57.2357 28.7296 57.6335 27.8438 58.3279 27.1941C59.0227 26.5422 59.9294 26.2054 60.8802 26.2357C62.8403 26.3061 64.3804 27.9687 64.3141 29.9363C64.2771 30.8907 63.8795 31.7765 63.1867 32.4242C62.4919 33.0799 61.5875 33.4169 60.6324 33.3846C58.6747 33.3122 57.1363 31.6534 57.2025 29.684H57.2005ZM66.709 33.203C66.8706 33.0957 66.9893 33.0069 67.0393 32.9871L67.0933 32.9026C66.9566 32.039 65.6756 27.8521 64.7077 26.8452C64.4408 26.5708 64.2269 26.3004 63.7942 26.046C60.288 23.9939 51.9744 22.755 51.5848 22.6985L51.5185 22.7169L51.4936 22.7774C51.4936 22.7774 51.4615 24.5087 51.4567 24.7022C50.6075 24.4154 44.4343 22.412 38.6469 22.2102C33.739 22.0369 26.5921 21.3991 17.1198 27.2506L16.8397 27.4258C12.3837 30.2183 9.30722 33.6627 7.69872 37.6639C7.19428 38.923 6.51593 41.764 7.18825 44.4376C7.47782 45.6061 8.0178 46.7802 8.74575 47.8314C10.3912 50.2064 13.1516 51.7822 16.1256 52.0486C20.3226 52.4259 23.5014 50.5314 24.632 46.984C25.4093 44.5364 24.632 40.9448 21.6519 39.1127C19.2281 37.6213 16.6216 37.9603 15.1095 38.9654C13.7978 39.8393 13.0552 41.197 13.0672 42.6882C13.0976 45.3335 15.3645 46.7398 16.9951 46.7439C17.4688 46.7439 17.9446 46.6611 18.4809 46.4856C18.6719 46.4271 18.8514 46.3546 19.0494 46.2316L19.1115 46.195L19.1504 46.1688L19.1374 46.1767C19.5091 45.9222 19.7326 45.5084 19.7326 45.0647C19.7326 44.9436 19.7157 44.8209 19.6812 44.6974C19.4886 44.0275 18.8299 43.6222 18.1474 43.7471L18.0552 43.7691L17.9305 43.8074L17.7496 43.87C17.374 43.9628 17.0929 43.9709 17.0329 43.9729C16.8419 43.9606 15.9033 43.6781 15.9033 42.6452V42.6311C15.9033 42.2517 16.0547 41.9856 16.1382 41.8401C16.4302 41.38 17.2297 40.9285 18.309 41.0229C19.7266 41.1462 20.7489 41.8766 21.4256 43.2545C22.054 44.5356 21.8895 46.1117 21.0019 47.2659C20.1204 48.4097 18.552 48.8958 16.4636 48.67C14.3591 48.4362 12.5799 47.2193 11.5838 45.3246C10.6087 43.4727 10.5555 41.2769 11.4463 39.5901C13.5769 35.5485 17.6012 35.5909 19.8081 35.9742C23.0733 36.5434 26.7883 39.5699 28.1057 43.0647C28.3185 43.6218 28.427 44.0633 28.5217 44.4672L28.6639 45.0705L32.3528 46.8803L32.401 46.9168L32.4906 46.9085L32.5069 46.8018C32.484 46.7189 32.4303 46.6426 32.3452 45.6052C32.2751 44.6847 32.1323 42.1649 33.395 40.9159C33.8852 40.4279 34.6322 39.9922 35.2222 39.8528C37.64 39.2594 40.4755 39.6688 43.1563 42.7866C44.5441 44.397 45.2207 45.1313 45.56 45.4602L45.6785 45.5675L45.8179 45.6722C45.9291 45.733 50.4285 47.8151 50.4285 47.8151L50.5211 47.7929L50.5229 47.6963C50.493 47.662 47.6714 43.9977 48.1734 40.9811C48.5688 38.578 50.4727 38.7959 53.1054 39.0945C53.9648 39.1954 54.9432 39.3084 55.9569 39.331C58.7843 39.349 61.8307 38.8243 63.7082 37.9991C64.923 37.4684 65.6981 37.1153 66.1843 36.6716C66.359 36.5261 66.4493 36.29 66.5439 36.036L66.61 35.8683C66.6885 35.6623 66.8042 35.2285 66.8548 34.9906C66.8753 34.8858 66.8873 34.7751 66.8128 34.7164L66.553 34.7648C65.7284 35.2634 63.6673 36.2075 61.7415 36.2478C59.3498 36.2965 54.5323 33.8306 54.0303 33.5682L53.9819 33.5119C53.8636 33.2214 53.1405 31.5045 52.9859 31.1411C56.4539 33.4373 59.3295 34.7065 61.5325 34.9022C63.9844 35.1215 65.8941 33.7775 66.7114 33.2028H66.7112L66.709 33.203ZM61.2569 30.015C60.6483 30.015 60.1567 29.684 60.1567 29.2785C60.1567 28.8691 60.6483 28.54 61.2569 28.54C61.8656 28.54 62.3586 28.8691 62.3586 29.2785C62.3582 29.684 61.8652 30.015 61.2569 30.015ZM60.8511 27.2889C60.1862 27.2649 59.5559 27.501 59.0739 27.955C58.5922 28.409 58.308 29.024 58.2879 29.6901C58.2417 31.0664 59.3143 32.2244 60.6816 32.2749C61.3461 32.295 61.9797 32.059 62.4644 31.605C62.9482 31.1487 63.2265 30.5333 63.2476 29.8699C63.2938 28.494 62.2216 27.3376 60.8519 27.2891L60.8511 27.2889Z" fill="url(#paint0_linear_1427_1838)"/>
<defs>
<linearGradient id="paint0_linear_1427_1838" x1="17.7976" y1="55.5884" x2="66.0566" y2="54.2777" gradientUnits="userSpaceOnUse">
<stop stop-color="#00E6CF"/>
<stop offset="0.489583" stop-color="#00C4E3"/>
<stop offset="1" stop-color="#00A1F8"/>
</linearGradient>
</defs>
</svg>
