<svg width="88" height="88" viewBox="0 0 88 88" fill="none" xmlns="http://www.w3.org/2000/svg">
<rect x="14" y="14" width="60" height="60" rx="22" fill="url(#paint0_radial_1823_1827)"/>
<rect x="14" y="14" width="60" height="60" rx="22" stroke="url(#paint1_linear_1823_1827)" stroke-width="4" stroke-linejoin="round"/>
<path fill-rule="evenodd" clip-rule="evenodd" d="M51.7668 36.0247H50.3276V35.7722C50.7217 35.7802 50.9723 35.695 50.7969 35.348C50.5307 34.8249 51.6835 34.8525 51.8535 34.9656C52.1546 35.1658 51.9564 35.7451 51.7668 36.0247ZM49.798 36.375H51.5435C51.3503 36.6682 50.8059 37.6592 50.4551 37.6606C50.3133 37.4634 49.8485 36.8217 49.798 36.375ZM55.4676 34.2717C55.3911 34.3104 55.3035 34.348 55.18 34.3713C54.6307 35.1497 54.9621 35.0585 53.9936 35.7085C53.9959 37.0126 54.033 37.1528 54.3385 38.3083C54.3462 38.3359 54.3421 38.3627 54.3269 38.3871C54.3117 38.4114 54.2902 38.4271 54.2625 38.4329C54.0281 38.4833 53.6917 38.5699 53.4966 38.6065C53.5029 38.6476 53.5955 39.3861 53.4908 39.936C53.3271 40.7993 51.2756 42.6882 50.7857 42.7849C50.108 42.9185 49.3506 42.3193 48.1665 41.7987C47.84 41.6552 46.7448 40.9342 46.1713 40.7426C45.6958 40.5839 45.2189 41.7432 45.8094 42.0544C46.0846 42.1991 46.5234 42.3941 46.6621 42.7537C47.0728 43.82 46.5972 47.9323 45.7508 48.7592C45.3491 48.7561 45.0109 48.3867 44.7126 48.4832C44.1793 48.7753 44.5171 50.4065 44.7126 50.6904C47.9903 54.0674 47.6011 56.5682 48.9928 58.4358C49.6275 58.4358 49.2111 59.109 49.6924 59.9C49.8203 60.3063 49.6553 60.9964 49.5859 61.258C49.5859 61.5977 49.5859 61.9372 49.5859 62.2769C49.551 62.3829 49.5157 62.489 49.4799 62.595C49.4799 62.8922 49.4799 63.1893 49.4799 63.4863C49.3828 63.9205 49.2755 64.5025 49.1838 64.9082C48.9896 65.7636 49.7407 66.4285 49.2894 67.2423C49.2894 67.7427 49.2911 67.6431 48.9928 68.0488C48.9928 68.8258 48.8102 70.4627 48.9928 71.041C49.1203 71.4433 50.5768 73.1483 50.9423 73.3116C51.8231 73.7045 53.1218 73.62 52.7008 75.0093C50.1223 75.8019 48.4761 74.5623 47.1023 74.5422L47.0379 74.779C46.1579 74.7804 45.4551 74.5634 45.2637 74.4999C45.2619 74.2619 45.5477 72.4364 45.6448 72.1445C45.7437 71.9888 45.8425 71.833 45.9414 71.6776C46.0483 71.3668 45.8327 69.0869 45.8144 68.4732C45.265 68.0691 45.1577 66.8369 45.1577 66.1601C44.9993 65.6364 44.9993 65.0155 44.9671 64.3351C44.9519 64.016 44.7618 63.5472 44.8821 63.1468C44.964 62.8736 45.2717 62.7543 45.3482 62.5313C45.3482 62.2769 45.3482 62.0221 45.3482 61.7674C45.4932 60.9637 45.448 60.5933 44.9671 60.1123C43.761 60.128 43.5951 60.1861 42.9326 59.1573C42.7268 58.8376 41.0403 56.1728 40.8775 56.1016C39.4741 55.4882 39.7533 55.7269 39.1395 54.6373C39.1145 54.6379 38.7409 54.7623 38.4108 55.2568C37.9089 56.0082 37.02 58.45 36.7663 59.3059C36.625 59.7834 36.7672 60.3113 36.5547 60.7064C36.4009 60.9926 35.8998 61.0844 35.7916 61.2794C35.2999 62.1666 35.6686 62.0973 34.7323 62.7223C34.5636 62.9398 34.5587 63.2663 34.4357 63.5287C34.365 63.6277 34.2943 63.7268 34.2236 63.8258C34.0662 64.1644 34.3914 64.7819 34.3296 64.9929C34.1677 65.5489 33.9539 66.1099 33.7365 66.6271C33.3075 67.6468 33.3629 69.0015 32.9303 69.6285C32.7129 69.9435 32.1873 69.6364 31.7869 69.895C31.7637 70.1141 31.1275 71.5702 31.0027 71.9748C31.0027 72.7456 31.0027 73.5167 31.0027 74.2878C31.1226 74.6777 31.451 75.0488 31.353 75.5422C31.2492 76.0677 29.4241 76.0595 28.4336 75.9165C27.7707 75.8208 27.5716 75.3315 27.5828 74.7655C27.5958 74.0977 28.9445 69.7584 28.8626 69.4705C27.8387 68.3169 29.1369 67.1295 29.5198 66.0539C29.7063 65.5296 29.5918 64.7979 29.7949 64.3141C30.155 63.6563 30.5156 62.9982 30.8757 62.3406C31.5328 61.719 31.2407 61.6876 31.5964 61.1308C31.905 60.6478 32.2795 60.3221 32.0625 59.5818C31.6259 58.0931 32.572 55.9826 32.6347 54.4251C32.4669 54.2482 31.8979 54.3042 31.8263 53.829C31.6814 52.8623 32.1922 51.1503 32.5072 50.9873C32.6472 50.9151 32.8069 50.9793 32.9312 50.9025C32.9312 50.1769 32.2115 46.141 32.7581 45.9368C33.0954 45.8108 33.8707 45.7443 34.0196 45.6769C34.0107 45.5049 33.893 45.1377 33.7503 45.1178C33.5101 45.0844 33.0171 44.9911 32.6248 44.9004C31.4206 44.6225 32.5349 39.8658 32.5497 39.8466C32.8811 39.4083 34.4187 39.9993 34.6052 39.2521C35.1192 38.5955 34.2084 36.0679 35.9629 32.9566C36.5552 31.9059 37.6897 30.8448 39.0125 31.2946C39.4558 31.4451 39.1869 32.0835 39.9662 31.4008C39.9854 31.0025 39.8011 30.6688 39.6906 30.3395C38.3951 26.4692 42.784 24.3721 45.8569 26.5834C46.2022 26.7236 46.4035 26.7926 46.6621 26.9866C46.8312 27.8629 47.6986 29.422 46.8316 30.4457C46.4769 30.5218 46.0421 30.7203 45.7719 30.9125C45.7674 31.2664 45.813 31.5923 45.8779 31.8036C45.936 31.9937 46.047 32.0691 45.7611 32.1855C45.7253 32.2 45.7406 32.3185 45.7602 32.3633C46.4773 32.5046 47.2418 32.2305 47.7214 32.0371H48.294V31.3143H48.4421H48.5673V30.7485H48.8407V31.727H49.5551V32.0371H60.1469V32.5878H60.6152V30.5724H61.0094V32.2112H61.9112V33.1472H64.7152V32.8687H65.1818V32.9912H66.5064V33.7712H65.1818V33.8935H64.7152V33.6151H61.9112V33.8939C61.4992 33.8939 61.0877 33.8939 60.6761 33.8939V33.7051H60.1469V34.2717H55.4676Z" fill="url(#paint2_linear_1823_1827)"/>
<defs>
<radialGradient id="paint0_radial_1823_1827" cx="0" cy="0" r="1" gradientUnits="userSpaceOnUse" gradientTransform="translate(16.1899 14.7659) rotate(48.7851) scale(63.4557 57.6967)">
<stop offset="0.305" stop-color="#4EFFED"/>
<stop offset="1" stop-color="#014FE6"/>
</radialGradient>
<linearGradient id="paint1_linear_1823_1827" x1="68" y1="17.5" x2="44" y2="76" gradientUnits="userSpaceOnUse">
<stop stop-color="#0057FF"/>
<stop offset="1" stop-color="#0057FF" stop-opacity="0"/>
</linearGradient>
<linearGradient id="paint2_linear_1823_1827" x1="51.9099" y1="36.8211" x2="60.1397" y2="40.3851" gradientUnits="userSpaceOnUse">
<stop stop-color="#004EE6"/>
<stop offset="1" stop-color="#69FFF1"/>
</linearGradient>
</defs>
</svg>
