<svg width="88" height="88" viewBox="0 0 88 88" fill="none" xmlns="http://www.w3.org/2000/svg">
<g clip-path="url(#clip0_1824_23)">
<path d="M30.6529 48.4957C42.4614 48.4149 36.7708 73.354 78.05 37.297C81.3825 34.3861 83.0488 32.9306 83.0703 32.4895C83.0918 32.0484 81.7097 30.5803 78.9454 27.6441C74.9936 23.4465 67.4717 19.6656 52.5343 29.3582C22.489 48.854 43.7731 16.11 14.8695 30.557C-8.76737 42.3715 6.27442 60.5648 12.8474 61.5578C14.312 61.7791 10.6977 59.9456 11.7726 56.7211C14.2839 49.187 18.3871 48.5796 30.6529 48.4957Z" fill="url(#paint0_radial_1824_23)"/>
<circle cx="46.4304" cy="45.8792" r="27.0079" fill="url(#paint1_radial_1824_23)"/>
<path d="M57.195 37.8283C45.3805 37.9091 46.9205 34.8742 5.26469 72.6271C4.64135 73.192 4.32968 73.4745 4.85261 74.2244C5.37553 74.9743 5.71333 74.7978 6.38893 74.4447C11.7349 71.6509 20.8663 66.3404 35.3137 56.9657C65.3589 37.47 44.0748 70.214 72.9784 55.767C96.6153 43.9525 81.5735 25.7591 75.0006 24.7661C73.536 24.5449 77.1502 26.3784 76.0754 29.6029C73.5641 37.1369 69.4608 37.7444 57.195 37.8283Z" fill="url(#paint2_radial_1824_23)"/>
</g>
<defs>
<radialGradient id="paint0_radial_1824_23" cx="0" cy="0" r="1" gradientUnits="userSpaceOnUse" gradientTransform="translate(38.6435 26.0881) rotate(135.659) scale(33.0633 23.4711)">
<stop stop-color="#5EFFFF"/>
<stop offset="1" stop-color="#014FE6"/>
</radialGradient>
<radialGradient id="paint1_radial_1824_23" cx="0" cy="0" r="1" gradientUnits="userSpaceOnUse" gradientTransform="translate(28.6052 26.9737) rotate(22.8645) scale(48.6562 48.6492)">
<stop offset="0.57" stop-color="#00E6CF"/>
<stop offset="1" stop-color="#014FE6"/>
</radialGradient>
<radialGradient id="paint2_radial_1824_23" cx="0" cy="0" r="1" gradientUnits="userSpaceOnUse" gradientTransform="translate(49.2044 60.2358) rotate(-44.3415) scale(33.0633 23.4711)">
<stop stop-color="#9CEDFF"/>
<stop offset="1" stop-color="#014FE6"/>
</radialGradient>
<clipPath id="clip0_1824_23">
<rect width="88" height="88" fill="white"/>
</clipPath>
</defs>
</svg>
