<svg fill="none" height="300" viewBox="0 0 1063 300" width="1063" xmlns="http://www.w3.org/2000/svg"><g fill="#fff"><path d="m1050.69 179.708c16.42-16.41 16.42-42.979 0-59.39-16.38-16.425-42.99-16.425-59.348.006-16.444 16.403-16.454 42.982 0 59.384 16.358 16.39 42.968 16.395 59.348 0z"/><path d="m942.687 71.7027c16.418-16.4097 16.418-42.9735-.001-59.385-16.378-16.42462-42.982-16.42463-59.344.0061-16.444 16.4035-16.454 42.9821 0 59.3841 16.354 16.3903 42.964 16.3903 59.345-.0052z"/><path d="m883.34 287.739c-16.22-16.182-15.898-42.849 0-59.234 13.485-13.494 13.487-35.324 0-48.795-13.39-13.374-35.24-13.107-48.803 0-16.324 16.326-42.901 16.327-59.248 0-16.221-16.202-15.897-42.999.001-59.39 13.351-13.353 13.086-35.2951 0-48.8134-16.383-16.3668-16.385-42.857 0-59.2251 16.344-16.37627 42.927-16.37627 59.254.0056 16.226 16.1984 15.901 42.826-.007 59.2195-13.466 13.4839-13.466 35.3224.005 48.8134 13.394 13.361 35.245 13.098 48.798 0 16.345-16.347 43.025-16.351 59.352 0 16.248 16.186 15.929 42.988 0 59.39-13.465 13.467-13.471 35.303 0 48.801 16.412 16.341 16.421 42.885 0 59.234-16.319 16.341-43.005 16.341-59.352-.006z"/><path d="m86.4385 108.587v-18.5909h-79.4351v18.9289h52.0554l-38.7035 33.464 9.9716 13.69c2.3662-.845 6.7604-2.197 14.1969-2.197 14.0279 0 23.4925 6.93 23.4925 19.267 0 12.169-8.2815 20.282-22.3094 20.282-11.1547 0-20.4503-3.718-33.9712-12.169l-10.9857 16.056c16.7321 11.493 29.7459 15.549 45.6329 15.549 29.4079 0 44.4499-20.45 44.4499-39.887 0-21.971-16.056-35.154-37.5204-35.661z"/><path d="m99.5464 108.925h61.3506c-20.281 27.042-39.548 65.069-44.45 101.069h25.521c5.577-38.704 24.507-77.576 45.126-102.928v-17.0699h-87.5476z"/><path d="m220.945 120.756c-23.155 0-36 12.338-36 27.042 0 15.38 7.437 21.464 31.775 26.873 12.337 2.704 21.295 4.056 21.295 11.154 0 5.916-6.423 9.127-15.042 9.127-10.141 0-16.901-2.535-29.577-12.845l-12.676 14.197c14.028 12.507 25.859 16.394 41.746 16.394 23.492 0 37.013-11.662 37.013-28.225 0-16.056-9.802-22.309-33.464-27.549-14.535-3.211-20.112-4.225-20.112-9.802 0-5.071 5.746-8.62 14.535-8.62 8.788 0 15.38 2.028 25.858 10.141l11.831-14.366c-12.169-10.141-22.647-13.521-37.182-13.521z"/><path clip-rule="evenodd" d="m296.587 100.475c0 7.098-5.747 12.845-13.014 12.845-7.268 0-13.014-5.747-13.014-12.845 0-7.0987 5.746-12.8451 13.014-12.8451 7.267 0 13.014 5.7464 13.014 12.8451zm-24 109.519v-86.365h21.971v86.365z" fill-rule="evenodd"/><path clip-rule="evenodd" d="m346.37 120.756c12.676 0 21.126 4.732 26.365 12.507v-9.634h20.282v82.14c0 24.675-18.422 37.351-42.253 37.351-13.69 0-27.042-3.549-41.07-12.676l10.648-15.887c12.169 7.268 20.112 10.31 30.084 10.31 11.831 0 21.126-5.747 21.126-20.958v-6.929c-5.408 6.76-13.521 10.986-25.182 10.986-21.803 0-38.028-17.577-38.028-43.605 0-25.859 16.225-43.605 38.028-43.605zm-15.887 43.605c0 14.873 8.281 25.014 20.788 25.014 12.169 0 20.957-10.141 20.957-25.014s-8.788-24.845-20.957-24.845c-12.507 0-20.788 9.972-20.788 24.845z" fill-rule="evenodd"/><path d="m457.504 120.756c-11.831 0-20.619 4.901-26.028 12.676v-9.803h-20.45v86.365h21.971v-52.056c0-10.816 7.268-18.253 17.408-18.253 10.479 0 16.056 6.423 16.056 17.746v52.563h21.972v-59.154c0-17.577-10.817-30.084-30.929-30.084z"/><path clip-rule="evenodd" d="m503.907 140.192c10.816-12.844 23.323-19.436 40.393-19.436 24.845 0 37.521 12.676 37.521 30.929v58.309h-19.774v-8.958c-5.24 7.268-14.535 11.831-27.887 11.831-16.394 0-30.929-7.098-30.929-24.676 0-19.943 17.746-26.872 37.351-30.422l20.281-3.718v-2.028c0-8.45-6.253-13.183-16.225-13.183-11.83 0-17.915 5.409-26.872 14.028zm20.788 46.478c0 5.409 4.901 8.62 13.183 8.62 11.155 0 22.985-5.408 22.985-20.45v-5.071l-14.535 3.042c-13.013 2.705-21.633 5.747-21.633 13.859z" fill-rule="evenodd"/><path d="m600.168 89.9961v119.9979h21.971v-119.9979z"/><path d="m673.613 120.756c-23.155 0-36 12.338-36 27.042 0 15.38 7.437 21.464 31.775 26.873 12.337 2.704 21.295 4.056 21.295 11.154 0 5.916-6.423 9.127-15.042 9.127-10.141 0-16.901-2.535-29.577-12.845l-12.676 14.197c14.028 12.507 25.859 16.394 41.746 16.394 23.492 0 37.013-11.662 37.013-28.225 0-16.056-9.802-22.309-33.464-27.549-14.535-3.211-20.112-4.225-20.112-9.802 0-5.071 5.746-8.62 14.535-8.62 8.788 0 15.38 2.028 25.858 10.141l11.831-14.366c-12.169-10.141-22.647-13.521-37.182-13.521z"/></g></svg>