<svg width="236" height="68" viewBox="0 0 236 68" fill="none" xmlns="http://www.w3.org/2000/svg">
<g clip-path="url(#clip0_1176_35458)">
<path d="M197.975 67.0616C210.044 67.0616 219.96 52.2892 224.342 46.0364C233.183 33.3743 235.181 26.8088 235.181 22.2754C235.181 18.2111 233.259 15.5536 230.185 15.5536C227.878 15.5536 226.802 16.257 225.342 18.7582C228.647 19.0708 230.876 22.2754 230.876 25.949C230.876 30.4042 227.878 36.1881 221.344 45.88L219.269 48.9283C220.345 43.7697 220.499 38.2984 220.422 33.5306C220.268 22.0409 217.039 15.5536 212.965 15.5536C210.889 15.5536 210.044 16.3352 208.122 18.9145C212.581 19.149 215.425 26.418 215.348 35.4846C215.271 47.8341 214.349 53.9306 211.966 56.9789C209.121 60.4961 204.509 61.903 199.051 61.903C196.514 61.903 194.669 61.7467 192.671 61.5122C192.978 65.9674 193.132 67.0616 197.975 67.0616ZM156.617 52.6019H163.151L164.689 41.0341C165.996 31.3421 169.532 22.5881 172.607 22.5881C173.837 22.5881 174.452 23.1352 175.605 23.1352C177.065 23.1352 177.911 22.1191 178.295 20.3996L179.372 16.4915C177.065 16.4134 176.297 15.7099 173.99 15.7099C171.146 15.7099 168.994 18.1329 165.15 30.4042H164.843L166.226 22.8226C167.226 17.3513 167.302 15.7881 164.458 15.7881C161.076 15.7881 157.386 18.8364 153.927 26.7306L155.772 26.6524C158.155 22.0409 159 20.9467 160.538 20.9467C161.383 20.9467 161.691 21.8065 161.537 22.9007L156.617 52.6019ZM136.246 30.0915C138.014 22.5881 141.627 19.149 144.625 19.149C146.47 19.149 147.392 20.3214 147.392 22.0409C147.392 25.4019 142.242 29.7007 136.246 30.0915ZM138.321 53.2272C143.472 53.2272 147.7 47.9904 149.929 39.9398H148.622C146.777 44.0042 144.394 47.5214 141.012 47.5214C135.246 47.5214 134.555 39.3145 135.785 32.2019C146.624 32.0455 153.158 25.8708 153.158 20.5559C153.158 17.3513 151.62 15.5536 147.777 15.5536C141.55 15.5536 132.402 22.8226 130.25 34.8593C127.944 48.1467 132.556 53.2272 138.321 53.2272ZM96.7331 53.3053C100.654 53.3053 104.42 50.6478 107.803 42.2846H106.265C104.113 46.349 102.652 47.8341 100.346 47.8341C98.6549 47.8341 97.7324 46.4272 98.2705 43.7697L103.344 19.5398H117.258L111.493 44.1605C110.263 49.3191 111.877 53.3053 116.105 53.3053C120.026 53.3053 123.792 50.6478 127.175 42.2846H125.637C123.485 46.349 122.024 47.8341 119.718 47.8341C118.027 47.8341 117.104 46.4272 117.643 43.7697L122.716 19.5398H130.48L132.172 17.0386L132.248 16.6478H123.331L125.253 9.30072H124.638L114.952 16.6478H103.959L105.881 9.30072H105.266L92.5819 18.9145L92.5051 19.5398H97.8862L92.1207 44.1605C90.8907 49.3191 92.5051 53.3053 96.7331 53.3053ZM59.5266 53.2272C63.9083 53.2272 70.75 47.9122 77.2842 36.5007L74.3631 45.0203C72.9025 49.3973 73.21 53.2272 77.438 53.2272C81.2816 53.2272 84.9715 49.3973 88.4308 42.7536H86.8933C84.3565 47.0524 82.0503 48.6157 80.8973 48.6157C79.821 48.6157 79.7442 47.8341 80.5898 44.7858L88.1233 16.6478H81.7429L79.0523 26.8869C75.7468 39.3927 67.2139 47.9904 63.0627 47.9904C61.679 47.9904 61.5253 46.1145 62.1402 44.2387L69.0588 22.5881C70.3657 18.6019 70.9806 15.7881 68.1363 15.7881C63.9083 15.7881 58.1429 18.7582 54.9142 25.48H56.4516C58.681 22.1191 61.4484 20.3996 62.3709 20.3996C63.1396 20.3996 63.6777 20.8685 63.0627 22.6662L56.6054 41.5812C54.5298 47.5996 54.8373 53.2272 59.5266 53.2272ZM14.479 55.2593V54.9467C18.707 53.6961 20.6288 51.4295 21.2438 48.5375L29.623 11.3329C30.5455 7.26853 32.4673 6.17428 35.6191 6.95589C41.3077 8.36279 45.1513 12.818 45.1513 18.68C45.1513 24.1513 42.9989 29.7789 34.2354 29.7789H30.3148L28.6236 31.8892V32.2019H33.3129C40.2314 32.2019 45.2282 36.8915 45.2282 43.5352C45.2282 47.8341 42.7683 51.8984 38.5402 53.9306C34.2354 56.041 26.5481 56.3536 14.479 55.2593ZM3.56304 59.4019C21.0901 62.2157 31.0836 62.2157 40.5389 55.8846C45.8432 52.2111 50.3018 46.349 50.3018 41.0341C50.3018 36.2662 47.2269 31.7329 42.2301 29.3881C47.0731 26.7306 50.3787 22.0409 50.3787 16.3352C50.3787 8.44095 43.6139 2.57888 33.0054 2.57888C16.9389 2.57888 5.9461 13.1306 3.48617 24.4639C7.48356 25.1674 9.48226 24.6984 10.7891 21.103C14.8634 9.5352 19.322 5.86164 28.1624 5.86164C28.6236 5.86164 29.7767 5.9398 30.0842 6.01796V6.3306C26.0868 7.3467 23.7806 9.92601 23.0888 12.818L14.6327 50.1007C13.9409 53.0708 12.7109 54.9467 10.6354 54.6341L1.17998 53.149C0.488124 57.1352 0.564997 58.9329 3.56304 59.4019ZM161.614 67.0616C170.531 67.0616 182.139 57.526 184.599 41.2685L187.828 19.5398H193.824L195.592 17.1168L195.669 16.6478H188.289L188.904 12.5053C189.98 5.23635 194.669 3.75129 198.205 3.75129C199.589 3.75129 200.973 3.90762 202.203 4.1421L194.054 46.4272C193.286 50.4915 194.746 53.2272 198.205 53.2272C201.665 53.2272 204.125 51.2731 207.43 42.5191H205.893C204.125 46.5835 202.433 48.8501 201.203 48.8501C199.897 48.8501 199.743 47.8341 200.05 46.349L208.199 2.42256C205.739 1.25014 203.048 0.9375 199.82 0.9375C189.442 0.9375 183.292 7.11221 181.678 20.0869L178.295 46.8961C176.988 56.9789 171.684 61.903 164.458 61.903C162.536 61.903 160.23 61.903 157.001 61.5122C156.617 65.6547 157.616 67.0616 161.614 67.0616Z" fill="white"/>
</g>
<defs>
<clipPath id="clip0_1176_35458">
<rect width="236" height="68" fill="white"/>
</clipPath>
</defs>
</svg>
