<svg width="88" height="88" viewBox="0 0 88 88" fill="none" xmlns="http://www.w3.org/2000/svg">
<rect x="10.25" y="10.25" width="67.5" height="67.5" rx="24.75" fill="url(#paint0_radial_1823_1827)"/>
<rect x="10.25" y="10.25" width="67.5" height="67.5" rx="24.75" stroke="url(#paint1_linear_1823_1827)" stroke-width="4.5" stroke-linejoin="round"/>
<path fill-rule="evenodd" clip-rule="evenodd" d="M52.7376 35.0278H51.1186V34.7437C51.562 34.7528 51.8438 34.6569 51.6465 34.2665C51.3471 33.678 52.644 33.7091 52.8352 33.8363C53.1739 34.0615 52.951 34.7132 52.7376 35.0278ZM50.5228 35.4219H52.4865C52.2691 35.7517 51.6566 36.8666 51.262 36.8682C51.1025 36.6463 50.5796 35.9244 50.5228 35.4219ZM56.9011 33.0557C56.8151 33.0992 56.7164 33.1415 56.5775 33.1677C55.9595 34.0434 56.3324 33.9408 55.2429 34.672C55.2454 36.1392 55.2872 36.2969 55.6309 37.5968C55.6394 37.6279 55.6349 37.6581 55.6178 37.6854C55.6007 37.7128 55.5765 37.7305 55.5453 37.737C55.2816 37.7937 54.9032 37.8912 54.6837 37.9323C54.6908 37.9786 54.795 38.8094 54.6772 39.428C54.493 40.3992 52.185 42.5243 51.634 42.633C50.8715 42.7834 50.0195 42.1093 48.6874 41.5236C48.32 41.3621 47.088 40.551 46.4428 40.3354C45.9078 40.1568 45.3713 41.4612 46.0356 41.8112C46.3452 41.974 46.8389 42.1933 46.9949 42.5979C47.4569 43.7975 46.9219 48.4239 45.9697 49.3541C45.5178 49.3506 45.1373 48.935 44.8016 49.0437C44.2018 49.3722 44.5817 51.2073 44.8016 51.5267C48.4891 55.3258 48.0512 58.1392 49.6169 60.2402C50.331 60.2402 49.8625 60.9976 50.404 61.8875C50.5479 62.3446 50.3622 63.121 50.2842 63.4152C50.2842 63.7974 50.2842 64.1794 50.2842 64.5615C50.2449 64.6808 50.2052 64.8001 50.1649 64.9194C50.1649 65.2537 50.1649 65.588 50.1649 65.9221C50.0557 66.4105 49.9349 67.0654 49.8318 67.5217C49.6134 68.4841 50.4583 69.232 49.9505 70.1476C49.9505 70.7105 49.9526 70.5985 49.6169 71.0549C49.6169 71.929 49.4115 73.7706 49.6169 74.4211C49.7603 74.8737 51.3989 76.7919 51.8101 76.9756C52.801 77.4175 54.262 77.3225 53.7884 78.8855C50.8876 79.7771 49.0356 78.3826 47.4901 78.36L47.4176 78.6264C46.4277 78.6279 45.6371 78.3838 45.4217 78.3123C45.4197 78.0446 45.7412 75.991 45.8504 75.6626C45.9617 75.4874 46.0729 75.3121 46.1841 75.1373C46.3044 74.7877 46.0618 72.2227 46.0412 71.5323C45.4232 71.0777 45.3024 69.6915 45.3024 68.9302C45.1242 68.3409 45.1242 67.6424 45.088 66.877C45.0709 66.5181 44.857 65.9906 44.9924 65.5402C45.0845 65.2328 45.4307 65.0986 45.5168 64.8477C45.5168 64.5615 45.5168 64.2748 45.5168 63.9884C45.6798 63.0841 45.629 62.6675 45.088 62.1263C43.7312 62.144 43.5445 62.2094 42.7992 61.052C42.5677 60.6923 40.6703 57.6944 40.4872 57.6143C38.9084 56.9242 39.2225 57.1928 38.532 55.967C38.5038 55.9676 38.0836 56.1076 37.7122 56.664C37.1475 57.5092 36.1475 60.2562 35.8622 61.2191C35.7031 61.7564 35.8632 62.3502 35.6241 62.7947C35.451 63.1166 34.8873 63.2199 34.7656 63.4393C34.2125 64.4375 34.6271 64.3595 33.5738 65.0625C33.3841 65.3072 33.3786 65.6746 33.2402 65.9697C33.1606 66.0812 33.0811 66.1926 33.0016 66.3041C32.8245 66.685 33.1903 67.3796 33.1209 67.617C32.9387 68.2425 32.6981 68.8737 32.4536 69.4554C31.9709 70.6027 32.0333 72.1267 31.5467 72.8321C31.3021 73.1864 30.7107 72.8409 30.2603 73.1319C30.2342 73.3784 29.5185 75.0164 29.3781 75.4716C29.3781 76.3389 29.3781 77.2063 29.3781 78.0737C29.513 78.5124 29.8824 78.93 29.7722 79.4849C29.6554 80.0762 27.6021 80.0669 26.4879 79.9061C25.742 79.7984 25.5181 79.2479 25.5306 78.6112C25.5452 77.8599 27.0626 72.9782 26.9705 72.6543C25.8185 71.3565 27.279 70.0207 27.7098 68.8107C27.9196 68.2208 27.7908 67.3977 28.0193 66.8533C28.4244 66.1133 28.83 65.373 29.2352 64.6331C29.9745 63.9338 29.6458 63.8986 30.0459 63.2722C30.3932 62.7287 30.8144 62.3624 30.5703 61.5296C30.0791 59.8548 31.1436 57.4804 31.214 55.7282C31.0253 55.5292 30.3851 55.5922 30.3046 55.0576C30.1416 53.9701 30.7163 52.044 31.0706 51.8607C31.2281 51.7794 31.4078 51.8517 31.5477 51.7653C31.5477 50.949 30.7379 46.4087 31.3529 46.1789C31.7324 46.0372 32.6045 45.9623 32.7721 45.8865C32.7621 45.693 32.6297 45.2799 32.4692 45.2575C32.1989 45.2199 31.6443 45.115 31.2029 45.013C29.8482 44.7003 31.1018 39.349 31.1184 39.3274C31.4913 38.8344 33.221 39.4993 33.4309 38.6586C34.0091 37.9199 32.9845 35.0764 34.9583 31.5762C35.6246 30.3941 36.9009 29.2004 38.389 29.7064C38.8878 29.8758 38.5853 30.5939 39.462 29.8259C39.4836 29.3778 39.2763 29.0024 39.152 28.6319C37.6945 24.2778 42.6321 21.9186 46.089 24.4063C46.4775 24.5641 46.704 24.6417 46.9949 24.8599C47.1851 25.8458 48.1609 27.5997 47.1856 28.7514C46.7865 28.837 46.2973 29.0603 45.9934 29.2765C45.9883 29.6747 46.0397 30.0413 46.1126 30.2791C46.1781 30.493 46.3029 30.5778 45.9813 30.7087C45.941 30.725 45.9581 30.8584 45.9803 30.9088C46.787 31.0676 47.6471 30.7593 48.1866 30.5417H48.8308V29.7286H48.9974H49.1383V29.0921H49.4458V30.1929H50.2495V30.5417H62.1653V31.1613H62.6922V28.894H63.1356V30.7376H64.1501V31.7906H67.3046V31.4773H67.8295V31.6151H69.3197V32.4926H67.8295V32.6302H67.3046V32.317H64.1501V32.6306C63.6866 32.6306 63.2236 32.6306 62.7606 32.6306V32.4182H62.1653V33.0557H56.9011Z" fill="url(#paint2_linear_1823_1827)"/>
<defs>
<radialGradient id="paint0_radial_1823_1827" cx="0" cy="0" r="1" gradientUnits="userSpaceOnUse" gradientTransform="translate(12.7137 11.1116) rotate(48.7851) scale(71.3877 64.9088)">
<stop offset="0.305" stop-color="#4EFFED"/>
<stop offset="1" stop-color="#014FE6"/>
</radialGradient>
<linearGradient id="paint1_linear_1823_1827" x1="71" y1="14.1875" x2="44" y2="80" gradientUnits="userSpaceOnUse">
<stop stop-color="#0057FF"/>
<stop offset="1" stop-color="#0057FF" stop-opacity="0"/>
</linearGradient>
<linearGradient id="paint2_linear_1823_1827" x1="52.8986" y1="35.9237" x2="62.1572" y2="39.9333" gradientUnits="userSpaceOnUse">
<stop stop-color="#004EE6"/>
<stop offset="1" stop-color="#69FFF1"/>
</linearGradient>
</defs>
</svg>
