<svg xmlns="http://www.w3.org/2000/svg" viewBox="0 0 240 240" width="240" height="240">
  <defs>
    <linearGradient id="deviceGradient" x1="38" y1="32" x2="184" y2="208" gradientUnits="userSpaceOnUse">
      <stop offset="0" stop-color="#8CFFCF" />
      <stop offset="0.48" stop-color="#00D7FF" />
      <stop offset="1" stop-color="#1168FF" />
    </linearGradient>
    <linearGradient id="portalGradient" x1="72" y1="70" x2="176" y2="170" gradientUnits="userSpaceOnUse">
      <stop offset="0" stop-color="#7DFFB2" />
      <stop offset="1" stop-color="#00A3FF" />
    </linearGradient>
    <filter id="softGlow" x="-35%" y="-35%" width="170%" height="170%">
      <feGaussianBlur stdDeviation="12" result="blur" />
      <feComposite in="SourceGraphic" in2="blur" operator="over" />
    </filter>
    <filter id="dropShadow" x="-30%" y="-30%" width="160%" height="160%">
      <feDropShadow dx="0" dy="10" stdDeviation="8" flood-color="#020617" flood-opacity="0.55" />
    </filter>
  </defs>

  <circle cx="126" cy="120" r="78" fill="#00D7FF" opacity="0.12" filter="url(#softGlow)" />

  <g filter="url(#dropShadow)">
    <rect x="32" y="54" width="78" height="132" rx="16" fill="#111827" stroke="url(#deviceGradient)" stroke-width="5" />
    <rect x="48" y="74" width="46" height="82" rx="7" fill="#0B1220" stroke="#27E7FF" stroke-opacity="0.42" stroke-width="2" />
    <circle cx="71" cy="170" r="5" fill="#8CFFCF" />
  </g>

  <g filter="url(#dropShadow)">
    <rect x="126" y="62" width="78" height="112" rx="13" fill="#0F172A" stroke="url(#deviceGradient)" stroke-width="5" />
    <path d="M142 155H188" stroke="#8CFFCF" stroke-width="5" stroke-linecap="round" />
    <circle cx="145" cy="82" r="4" fill="#8CFFCF" />
    <circle cx="158" cy="82" r="4" fill="#00D7FF" />
    <circle cx="171" cy="82" r="4" fill="#1168FF" />
  </g>

  <g fill="none" stroke="url(#portalGradient)" stroke-linecap="round" stroke-linejoin="round" filter="url(#softGlow)">
    <path d="M96 112C116 92 132 92 152 112" stroke-width="8" />
    <path d="M96 132C116 152 132 152 152 132" stroke-width="8" />
  </g>

  <path d="M57 92H85" stroke="#8CFFCF" stroke-width="4" stroke-linecap="round" opacity="0.78" />
  <path d="M57 108H85" stroke="#00D7FF" stroke-width="4" stroke-linecap="round" opacity="0.78" />
  <path d="M57 124H78" stroke="#1168FF" stroke-width="4" stroke-linecap="round" opacity="0.78" />
</svg>
