<svg width="32" height="32" fill="none" xmlns="http://www.w3.org/2000/svg"><mask id="prefix__a" style="mask-type:luminance" maskUnits="userSpaceOnUse" x="0" y="0" width="32" height="32"><path d="M0 0h32v32H0V0z" fill="#fff"/></mask><g mask="url(#prefix__a)"><path d="M31.103 20.992c0 2.01-.525 3.436-1.345 4.475-.827 1.05-2.016 1.784-3.476 2.29-2.961 1.029-6.772 1.039-10.182 1.039s-7.273-.01-10.287-1.04c-1.487-.508-2.701-1.244-3.546-2.296-.835-1.04-1.37-2.463-1.37-4.468 0-3.748.807-8.31 3.108-11.903 2.267-3.541 6.013-6.2 12.095-6.2 5.764 0 9.469 2.664 11.771 6.232 2.331 3.613 3.232 8.18 3.232 11.871z" fill="#FBC546" stroke="#000" stroke-width="1.794"/><path fill-rule="evenodd" clip-rule="evenodd" d="M19.454 22.413a.853.853 0 010 1.706H12.63a.853.853 0 010-1.706h6.825z" fill="#593604"/><path fill-rule="evenodd" clip-rule="evenodd" d="M27.133 19.853c0-.943-.764-1.706-1.706-1.706h-3.413a1.706 1.706 0 100 3.412h3.413c.942 0 1.706-.763 1.706-1.706zM11.776 19.853c0-.943-.764-1.706-1.706-1.706H6.657a1.706 1.706 0 100 3.412h3.413c.942 0 1.706-.763 1.706-1.706z" fill="#ED6B44"/><path fill-rule="evenodd" clip-rule="evenodd" d="M7.293 14.654c-.086-.127-.293-.11-.293.044v.002c0 .938.76 1.698 1.698 1.698h.017c.937 0 1.698-.76 1.698-1.698v-.002c0-.153-.207-.17-.293-.044-.306.449-.82.744-1.405.744h-.017c-.584 0-1.1-.295-1.405-.744z" fill="#000"/><path d="M23.15 9.586a.825.825 0 010 1.358c-1.318.96-4.025 2.594-7.15 2.594s-5.832-1.635-7.15-2.594a.825.825 0 010-1.358c1.318-.96 4.025-2.594 7.15-2.594s5.832 1.635 7.15 2.594z" fill="#fff"/><path fill-rule="evenodd" clip-rule="evenodd" d="M21.293 14.654c-.086-.127-.293-.11-.293.044v.002c0 .938.76 1.698 1.698 1.698h.017c.937 0 1.698-.76 1.698-1.698v-.002c0-.153-.207-.17-.293-.044-.306.449-.82.744-1.405.744h-.017c-.585 0-1.1-.295-1.405-.744z" fill="#000"/><mask id="prefix__b" style="mask-type:alpha" maskUnits="userSpaceOnUse" x="10" y="6" width="12" height="8"><path d="M20.306 7.947c2.158.936 2.158 3.69 0 4.626-1.244.54-2.721.96-4.306.96s-3.062-.42-4.306-.96c-2.158-.937-2.158-3.69 0-4.626 1.244-.54 2.721-.96 4.306-.96s3.062.42 4.306.96z" fill="#fff"/></mask><g mask="url(#prefix__b)" fill-rule="evenodd" clip-rule="evenodd"><path d="M12.515 9.47a3.468 3.468 0 013.468-3.468h.034a3.468 3.468 0 013.468 3.467v.006a3.468 3.468 0 01-3.468 3.467h-.034a3.468 3.468 0 01-3.468-3.467v-.006z" fill="#FBC546"/><path d="M13.958 9.47c0-1.127.91-2.04 2.032-2.04h.02c1.122 0 2.032.913 2.032 2.04v.004c0 1.127-.91 2.04-2.032 2.04h-.02a2.037 2.037 0 01-2.032-2.04V9.47z" fill="#000"/></g></g></svg>