<svg width="208.614" height="189.832" viewBox="0 0 55.196 50.227" xmlns:xlink="http://www.w3.org/1999/xlink" xmlns="http://www.w3.org/2000/svg"><defs><linearGradient xlink:href="#prefix__a" id="prefix__e" gradientUnits="userSpaceOnUse" gradientTransform="rotate(9.352 107.578 410.384) scale(1.09791)" x1="37.503" y1="64.629" x2="37.694" y2="57.443"/><linearGradient id="prefix__a"><stop offset="0" stop-color="#0060f2"/><stop offset="1" stop-color="#2be7ff"/></linearGradient><linearGradient xlink:href="#prefix__a" id="prefix__f" gradientUnits="userSpaceOnUse" gradientTransform="rotate(-6.263 77 -729.424) scale(.96755)" x1="37.503" y1="64.629" x2="37.694" y2="57.443"/><filter id="prefix__b" x="-.038" y="-.042" width="1.075" height="1.084" color-interpolation-filters="sRGB"><feGaussianBlur stdDeviation=".244"/></filter><filter id="prefix__c" x="-.077" y="-.065" width="1.153" height="1.132" color-interpolation-filters="sRGB"><feGaussianBlur stdDeviation=".244"/></filter><filter id="prefix__d" x="-.145" y="-.114" width="1.29" height="1.23" color-interpolation-filters="sRGB"><feGaussianBlur stdDeviation=".244"/></filter></defs><path d="M81.112 67.226s1.85 10.984 22.47 11.168c26.698.238 28.869-14.023 28.869-14.023s-3.573 1.72-4.042.904c0 0 4.011-5.017 2.873-11.26 0 0-.636 2.703-3.424.895 0 0 1.25-2.59-3.304-5.994 0 0 6.925-9.24-4.544-16.436 0 0 1.474 8.83-12.798 8.688 0 0-8.282.363-13.121 6.266 0 0 .54-.518-.965-2.011 0 0-4.953 2.731-1.996 7.33-.106-.157-.869-.32-1.889.964-1.02 1.283-1.546 4.72-5.135 2.132-.126-.11-5.465 10.906 5.046 13.692 0 0-3.181-2.135-8.04-2.315z" fill="#0ff" stroke="#4cb6ff" stroke-width="2.685" stroke-linejoin="round" filter="url(#prefix__b)" transform="translate(-79.184 -30.552)"/><path d="M110.716 78.763C96.972 72.898 95.43 62.931 95.43 62.931s-.461-13.777 14.9-14.046c15.36-.268 8.972 19.798 8.972 19.798s-2.94 8.305-8.586 10.08z" fill="#0ff" stroke="#4cb6ff" stroke-width="2.685" filter="url(#prefix__c)" transform="translate(-79.184 -30.552)"/><path d="M115.086 62.973s-5.091 4.033 1.915 7.235c3.75 1.714 3.327 5.807-.154 5.684 0 0 12.792 3.465 9.02-11.433-2.315-9.15-8.645-3.296-10.78-1.486z" fill="#0ff" stroke="#4cb6ff" stroke-width="2.685" filter="url(#prefix__d)" transform="translate(-79.184 -30.552)"/><path d="M1.928 36.673s1.85 10.985 22.47 11.169c26.699.237 28.87-14.023 28.87-14.023s-3.574 1.72-4.043.904c0 0 4.012-5.017 2.873-11.26 0 0-.635 2.703-3.423.895 0 0 1.25-2.59-3.305-5.995 0 0 6.925-9.24-4.543-16.435 0 0 1.473 8.83-12.799 8.688 0 0-8.282.363-13.12 6.266 0 0 .54-.518-.966-2.012 0 0-4.953 2.732-1.996 7.331-.106-.157-.868-.32-1.888.964-1.02 1.283-1.547 4.72-5.136 2.132-.126-.11-5.464 10.905 5.047 13.692 0 0-3.182-2.135-8.04-2.316z" fill="#1be449" stroke="#010000" stroke-width="1.185" stroke-linejoin="round"/><path d="M35.903 32.42s-5.092 4.034 1.915 7.236c3.75 1.713 3.326 5.807-.154 5.684 0 0 12.791 3.465 9.02-11.433-2.316-9.15-8.646-3.296-10.781-1.487z" fill="#1be449" stroke="#010000" stroke-width="1.185"/><path d="M31.533 48.211C17.788 42.346 16.247 32.38 16.247 32.38s-.462-13.777 14.899-14.046c15.36-.268 8.973 19.798 8.973 19.798s-2.941 8.304-8.586 10.08z" fill="#1be449" stroke="#010000" stroke-width="1.185"/><path d="M1.928 36.673s1.85 10.985 22.47 11.169c26.699.237 28.87-14.023 28.87-14.023s-3.574 1.72-4.043.904c0 0 4.012-5.017 2.873-11.26 0 0-.635 2.703-3.423.895 0 0 1.25-2.59-3.305-5.995 0 0 6.925-9.24-4.543-16.435 0 0 1.473 8.83-12.799 8.688 0 0-8.282.363-13.12 6.266 0 0 .54-.518-.966-2.012 0 0-4.953 2.732-1.996 7.331-.106-.157-.868-.32-1.888.964-1.02 1.283-1.547 4.72-5.136 2.132-.126-.11-5.464 10.905 5.047 13.692 0 0-3.182-2.135-8.04-2.316z" fill="#157def"/><path d="M36.165 32.686s-5.091 4.033 1.915 7.235c3.75 1.714 3.327 5.807-.154 5.685 0 0 12.792 3.465 9.02-11.433-2.315-9.15-8.645-3.297-10.78-1.487z" fill="#1bf4ff" stroke="#000" stroke-width=".661" stroke-linecap="round" stroke-linejoin="round"/><path d="M31.533 48.211C17.788 42.346 16.247 32.38 16.247 32.38s-.462-13.777 14.899-14.046c15.36-.268 8.973 19.798 8.973 19.798s-2.941 8.304-8.586 10.08z" fill="#fff"/><path d="M15.681 32.167s-6.32 2.122-.752 7.446c4.633 4.43-.163 5.652-1.92 5.15 0 0 11.624 7.525 11.386-6.478-.161-9.437-6.078-7.06-8.714-6.118zm3.043 2.162" fill="#1bf4ff" stroke="#000" stroke-width=".661" stroke-linecap="round" stroke-linejoin="round"/><path d="M31.655 39.243l.898-.899.797.856M27.445 35.739L26.147 35M26.845 36.769l-1.144.46M36.985 36.045l1.493-.793M37.4 37.245l1.2.616" fill="none" stroke="#000" stroke-width=".661" stroke-linecap="round" stroke-linejoin="round"/><path d="M15.681 32.167s8.999 3.357 13.918-6.56c0 0 2.978 2.7.879 6.584 0 0 12-5.848 6.786-14.49 0 0-2.849 11.315 4.543 13.633 9.224 2.891-1.186-15.66-1.393-15.675 0 0-29.799-7.904-24.98 13.247" fill="#157def"/><path d="M18.537 27.31s-2.462 1.806-2.437 4.104c.026 2.297 4.325 2.849 4.746.537.42-2.312-.745-4.451-.745-4.451" fill="none" stroke="#000" stroke-width="2.533" stroke-linecap="round"/><path d="M97.717 57.868s-2.461 1.806-2.436 4.103c.025 2.297 4.325 2.849 4.746.537.42-2.312-.746-4.451-.746-4.451" fill="none" stroke="url(#prefix__e)" stroke-width="1.324" stroke-linecap="round" transform="translate(-79.184 -30.552)"/><path d="M42.554 25.79s-1.661 2.117-1.095 4.06c.567 1.944 4.347 1.392 4.156-.67-.192-2.061-1.689-3.6-1.689-3.6" fill="none" stroke="#000" stroke-width="2.233" stroke-linecap="round"/><path d="M121.736 56.347s-1.66 2.117-1.094 4.06c.566 1.945 4.346 1.393 4.155-.67-.191-2.061-1.689-3.6-1.689-3.6" fill="none" stroke="url(#prefix__f)" stroke-width="1.167" stroke-linecap="round" transform="translate(-79.184 -30.552)"/><path d="M28.93 43.282s3.578-1.024 6.064.057c0 0-1.962 2.806-3.062 2.74-1.1-.065-2.914-1.61-3.002-2.797z" stroke="#000" stroke-width=".661" stroke-linecap="round" stroke-linejoin="round"/><path d="M28.19 42.125c-.062-.07 4.19-1.675 7.339-.054.254.167-1.929 4.054-3.597 4.008-1.881-.051-4.03-3.68-3.743-3.954z" fill="none" stroke="#000" stroke-width=".661"/><path d="M26.845 36.769s2.102-2.853 4.786-.931M37.4 37.245s-1.167-2.914-3.284-1.3" fill="none" stroke="#000" stroke-width=".661" stroke-linecap="round"/></svg>