<svg width="208.614" height="189.832" viewBox="0 0 55.196 50.227" xmlns:xlink="http://www.w3.org/1999/xlink" xmlns="http://www.w3.org/2000/svg"><defs><linearGradient xlink:href="#prefix__a" id="prefix__f" gradientUnits="userSpaceOnUse" gradientTransform="matrix(1.00159 0 0 .95875 42.119 110.086)" x1="77.301" y1="39.614" x2="77.301" y2="39.617"/><linearGradient id="prefix__a"><stop offset="0" stop-color="#3992f3"/><stop offset="1" stop-color="#1bf4ff"/></linearGradient><linearGradient xlink:href="#prefix__b" id="prefix__g" gradientUnits="userSpaceOnUse" gradientTransform="rotate(9.352 -393.427 526.1) scale(1.09791)" x1="37.503" y1="64.629" x2="37.694" y2="57.443"/><linearGradient id="prefix__b"><stop offset="0" stop-color="#0060f2"/><stop offset="1" stop-color="#2be7ff"/></linearGradient><linearGradient xlink:href="#prefix__b" id="prefix__h" gradientUnits="userSpaceOnUse" gradientTransform="rotate(-6.263 841.188 -798.941) scale(.96755)" x1="37.503" y1="64.629" x2="37.694" y2="57.443"/><filter id="prefix__c" x="-.038" y="-.042" width="1.075" height="1.084" color-interpolation-filters="sRGB"><feGaussianBlur stdDeviation=".244"/></filter><filter id="prefix__d" x="-.145" y="-.114" width="1.29" height="1.23" color-interpolation-filters="sRGB"><feGaussianBlur stdDeviation=".244"/></filter><filter id="prefix__e" x="-.077" y="-.065" width="1.153" height="1.132" color-interpolation-filters="sRGB"><feGaussianBlur stdDeviation=".244"/></filter></defs><path d="M93.257 150.177s1.85 10.984 22.47 11.168c26.698.238 28.87-14.023 28.87-14.023s-3.574 1.72-4.043.904c0 0 4.011-5.017 2.873-11.26 0 0-.636 2.703-3.424.895 0 0 1.25-2.59-3.304-5.994 0 0 6.925-9.24-4.544-16.436 0 0 1.474 8.83-12.798 8.688 0 0-8.282.363-13.12 6.266 0 0 .54-.518-.966-2.011 0 0-4.953 2.731-1.996 7.33-.106-.157-.869-.32-1.888.964-1.02 1.283-1.547 4.72-5.136 2.132-.126-.11-5.465 10.905 5.046 13.692 0 0-3.181-2.135-8.04-2.315z" fill="#0ff" stroke="#4cb6ff" stroke-width="2.685" stroke-linejoin="round" filter="url(#prefix__c)" transform="translate(-91.329 -113.503)"/><path d="M127.231 145.923s-5.091 4.034 1.915 7.236c3.75 1.713 3.327 5.807-.154 5.684 0 0 12.792 3.465 9.021-11.433-2.316-9.15-8.646-3.296-10.782-1.487z" fill="#0ff" stroke="#4cb6ff" stroke-width="2.685" filter="url(#prefix__d)" transform="translate(-91.329 -113.503)"/><path d="M122.861 161.714c-13.744-5.865-15.286-15.832-15.286-15.832s-.461-13.777 14.9-14.046c15.36-.268 8.972 19.798 8.972 19.798s-2.94 8.305-8.586 10.08z" fill="#0ff" stroke="#4cb6ff" stroke-width="2.685" filter="url(#prefix__e)" transform="translate(-91.329 -113.503)"/><path d="M1.928 36.673s1.85 10.985 22.47 11.169c26.699.237 28.87-14.023 28.87-14.023s-3.574 1.72-4.043.904c0 0 4.012-5.017 2.873-11.26 0 0-.635 2.703-3.423.895 0 0 1.25-2.59-3.305-5.995 0 0 6.925-9.24-4.543-16.435 0 0 1.473 8.83-12.799 8.688 0 0-8.282.363-13.12 6.266 0 0 .54-.518-.966-2.012 0 0-4.953 2.732-1.996 7.331-.106-.157-.868-.32-1.888.964-1.02 1.283-1.547 4.72-5.136 2.132-.126-.11-5.464 10.905 5.047 13.692 0 0-3.182-2.135-8.04-2.316z" fill="#1be449" stroke="#010000" stroke-width="1.185" stroke-linejoin="round"/><path d="M35.903 32.42s-5.092 4.034 1.915 7.236c3.75 1.713 3.326 5.807-.154 5.684 0 0 12.791 3.465 9.02-11.433-2.316-9.15-8.646-3.296-10.781-1.487z" fill="#1be449" stroke="#010000" stroke-width="1.185"/><path d="M31.533 48.211C17.788 42.346 16.247 32.38 16.247 32.38s-.462-13.777 14.899-14.046c15.36-.268 8.973 19.798 8.973 19.798s-2.941 8.304-8.586 10.08z" fill="#1be449" stroke="#010000" stroke-width="1.185"/><path d="M1.928 36.673s1.85 10.985 22.47 11.169c26.699.237 28.87-14.023 28.87-14.023s-3.574 1.72-4.043.904c0 0 4.012-5.017 2.873-11.26 0 0-.635 2.703-3.423.895 0 0 1.25-2.59-3.305-5.995 0 0 6.925-9.24-4.543-16.435 0 0 1.473 8.83-12.799 8.688 0 0-8.282.363-13.12 6.266 0 0 .54-.518-.966-2.012 0 0-4.953 2.732-1.996 7.331-.106-.157-.868-.32-1.888.964-1.02 1.283-1.547 4.72-5.136 2.132-.126-.11-5.464 10.905 5.047 13.692 0 0-3.182-2.135-8.04-2.316z" fill="#157def"/><path d="M35.908 32.672s-5.091 4.033 1.915 7.235c3.75 1.714 3.326 5.807-.154 5.685 0 0 12.792 3.465 9.02-11.433-2.315-9.15-8.645-3.297-10.78-1.487z" fill="#1bf4ff" stroke="#000" stroke-width=".661" stroke-linecap="round" stroke-linejoin="round"/><path d="M31.533 48.211C17.788 42.346 16.247 32.38 16.247 32.38s-.462-13.777 14.899-14.046c15.36-.268 8.973 19.798 8.973 19.798s-2.941 8.304-8.586 10.08z" fill="#fff"/><path d="M15.681 32.167s-6.32 2.122-.752 7.446c4.633 4.43-.163 5.652-1.92 5.15 0 0 11.624 7.525 11.386-6.478-.161-9.437-6.078-7.06-8.714-6.118zm3.043 2.162" fill="#1bf4ff" stroke="#000" stroke-width=".661" stroke-linecap="round" stroke-linejoin="round"/><path d="M31.655 39.772l.898-.898.797.855M36.985 36.045l1.493-.793M37.4 37.245l1.2.616" fill="none" stroke="#000" stroke-width=".661" stroke-linecap="round" stroke-linejoin="round"/><path d="M118.197 146.3c-.018.497-.605 4.077 1.144 6.175 1.9 2.28 3.464-8.61 2.66-9.603-.856-1.06-3.177-1.42-3.804 3.427z" fill="url(#prefix__f)" stroke="#000" stroke-width=".661" transform="translate(-91.329 -113.503)"/><path d="M15.681 32.167s8.999 3.357 13.918-6.56c-.032.124 3.215 3.148 1.21 6.666 0 0 11.669-5.93 6.455-14.572 0 0-2.75 11.022 4.543 13.633 9.21 3.296-1.148-15.62-1.393-15.675 0 0-29.799-7.904-24.98 13.247" fill="#157def"/><path d="M18.537 27.31s-2.462 1.806-2.437 4.104c.026 2.297 4.325 2.849 4.746.537.42-2.312-.745-4.451-.745-4.451" fill="none" stroke="#000" stroke-width="2.533" stroke-linecap="round"/><path d="M109.862 140.818s-2.461 1.807-2.436 4.104c.025 2.297 4.325 2.849 4.746.537.42-2.312-.746-4.451-.746-4.451" fill="none" stroke="url(#prefix__g)" stroke-width="1.324" stroke-linecap="round" transform="translate(-91.329 -113.503)"/><path d="M42.554 25.79s-1.661 2.117-1.095 4.06c.567 1.944 4.347 1.392 4.156-.67-.192-2.061-1.689-3.6-1.689-3.6" fill="none" stroke="#000" stroke-width="2.233" stroke-linecap="round"/><path d="M133.881 139.298s-1.66 2.117-1.094 4.06c.566 1.945 4.346 1.393 4.155-.67-.191-2.061-1.689-3.6-1.689-3.6" fill="none" stroke="url(#prefix__h)" stroke-width="1.167" stroke-linecap="round" transform="translate(-91.329 -113.503)"/><path d="M37.4 37.245s-1.167-2.914-3.284-1.3" fill="none" stroke="#000" stroke-width=".661" stroke-linecap="round"/><path d="M27.006 31.942l-1.299-.738M27.052 37.18l-1.144.46" fill="none" stroke="#000" stroke-width=".661" stroke-linecap="round" stroke-linejoin="round"/><path d="M32.199 43.55s2.641.53 4.067-1.547" fill="none" stroke="#000" stroke-width=".661" stroke-linecap="round"/><path d="M35.648 42.881s1.087.976.397 1.645c-.69.67-2.065-.957-2.065-.957s.836-.06 1.372-.645" fill="#f339ba" stroke="#000" stroke-width=".661" stroke-linecap="round"/></svg>