<svg width="208.614" height="189.832" viewBox="0 0 55.196 50.227" xmlns:xlink="http://www.w3.org/1999/xlink" xmlns="http://www.w3.org/2000/svg"><defs><linearGradient xlink:href="#prefix__a" id="prefix__f" gradientUnits="userSpaceOnUse" gradientTransform="matrix(1.00159 0 0 .95875 -30.178 58.544)" x1="77.301" y1="39.614" x2="77.301" y2="39.617"/><linearGradient id="prefix__a"><stop offset="0" stop-color="#3992f3"/><stop offset="1" stop-color="#1bf4ff"/></linearGradient><linearGradient xlink:href="#prefix__b" id="prefix__g" gradientUnits="userSpaceOnUse" gradientTransform="rotate(9.352 -117.604 11.536) scale(1.09791)" x1="37.503" y1="64.629" x2="37.694" y2="57.443"/><linearGradient id="prefix__b"><stop offset="0" stop-color="#0060f2"/><stop offset="1" stop-color="#2be7ff"/></linearGradient><linearGradient xlink:href="#prefix__b" id="prefix__h" gradientUnits="userSpaceOnUse" gradientTransform="rotate(-6.263 329.071 -94.085) scale(.96755)" x1="37.503" y1="64.629" x2="37.694" y2="57.443"/><filter id="prefix__c" x="-.038" y="-.042" width="1.075" height="1.084" color-interpolation-filters="sRGB"><feGaussianBlur stdDeviation=".244"/></filter><filter id="prefix__d" x="-.145" y="-.114" width="1.29" height="1.23" color-interpolation-filters="sRGB"><feGaussianBlur stdDeviation=".244"/></filter><filter id="prefix__e" x="-.077" y="-.065" width="1.153" height="1.132" color-interpolation-filters="sRGB"><feGaussianBlur stdDeviation=".244"/></filter></defs><path d="M13.307 98.517s1.85 10.984 22.47 11.168c26.698.238 28.869-14.023 28.869-14.023s-3.573 1.72-4.042.904c0 0 4.01-5.017 2.873-11.26 0 0-.636 2.703-3.424.895 0 0 1.25-2.59-3.304-5.994 0 0 6.925-9.24-4.544-16.436 0 0 1.473 8.83-12.799 8.688 0 0-8.281.363-13.12 6.266 0 0 .54-.518-.965-2.011 0 0-4.953 2.731-1.997 7.33-.105-.157-.868-.32-1.888.964-1.02 1.283-1.547 4.72-5.136 2.132-.125-.11-5.464 10.906 5.047 13.692 0 0-3.181-2.135-8.04-2.315z" fill="#0ff" stroke="#4cb6ff" stroke-width="2.685" stroke-linejoin="round" filter="url(#prefix__c)" transform="translate(-11.378 -61.843)"/><path d="M47.281 94.264s-5.091 4.033 1.915 7.235c3.75 1.714 3.327 5.807-.154 5.684 0 0 12.792 3.465 9.02-11.433-2.315-9.15-8.645-3.296-10.78-1.486z" fill="#0ff" stroke="#4cb6ff" stroke-width="2.685" filter="url(#prefix__d)" transform="translate(-11.378 -61.843)"/><path d="M42.911 110.054c-13.744-5.865-15.286-15.832-15.286-15.832s-.462-13.777 14.9-14.046c15.36-.268 8.972 19.798 8.972 19.798s-2.94 8.305-8.586 10.08z" fill="#0ff" stroke="#4cb6ff" stroke-width="2.685" filter="url(#prefix__e)" transform="translate(-11.378 -61.843)"/><path d="M1.928 36.673s1.85 10.985 22.47 11.169c26.699.237 28.87-14.023 28.87-14.023s-3.574 1.72-4.043.904c0 0 4.012-5.017 2.873-11.26 0 0-.635 2.703-3.423.895 0 0 1.25-2.59-3.305-5.995 0 0 6.925-9.24-4.543-16.435 0 0 1.473 8.83-12.799 8.688 0 0-8.282.363-13.12 6.266 0 0 .54-.518-.966-2.012 0 0-4.953 2.732-1.996 7.331-.106-.157-.868-.32-1.888.964-1.02 1.283-1.547 4.72-5.136 2.132-.126-.11-5.464 10.905 5.047 13.692 0 0-3.182-2.135-8.04-2.316z" fill="#1be449" stroke="#010000" stroke-width="1.185" stroke-linejoin="round"/><path d="M35.903 32.42s-5.092 4.034 1.915 7.236c3.75 1.713 3.326 5.807-.154 5.684 0 0 12.791 3.465 9.02-11.433-2.316-9.15-8.646-3.296-10.781-1.487z" fill="#1be449" stroke="#010000" stroke-width="1.185"/><path d="M31.533 48.211C17.788 42.346 16.247 32.38 16.247 32.38s-.462-13.777 14.899-14.046c15.36-.268 8.973 19.798 8.973 19.798s-2.941 8.304-8.586 10.08z" fill="#1be449" stroke="#010000" stroke-width="1.185"/><path d="M1.928 36.673s1.85 10.985 22.47 11.169c26.699.237 28.87-14.023 28.87-14.023s-3.574 1.72-4.043.904c0 0 4.012-5.017 2.873-11.26 0 0-.635 2.703-3.423.895 0 0 1.25-2.59-3.305-5.995 0 0 6.925-9.24-4.543-16.435 0 0 1.473 8.83-12.799 8.688 0 0-8.282.363-13.12 6.266 0 0 .54-.518-.966-2.012 0 0-4.953 2.732-1.996 7.331-.106-.157-.868-.32-1.888.964-1.02 1.283-1.547 4.72-5.136 2.132-.126-.11-5.464 10.905 5.047 13.692 0 0-3.182-2.135-8.04-2.316z" fill="#157def"/><path d="M36.165 32.686s-5.091 4.033 1.915 7.235c3.75 1.714 3.327 5.807-.154 5.685 0 0 12.792 3.465 9.02-11.433-2.315-9.15-8.645-3.297-10.78-1.487z" fill="#1bf4ff" stroke="#000" stroke-width=".661" stroke-linecap="round" stroke-linejoin="round"/><path d="M31.533 48.211C17.788 42.346 16.247 32.38 16.247 32.38s-.462-13.777 14.899-14.046c15.36-.268 8.973 19.798 8.973 19.798s-2.941 8.304-8.586 10.08z" fill="#fff"/><path d="M15.681 32.167s-6.32 2.122-.752 7.446c4.633 4.43-.163 5.652-1.92 5.15 0 0 11.624 7.525 11.386-6.478-.161-9.437-6.078-7.06-8.714-6.118zm3.043 2.162" fill="#1bf4ff" stroke="#000" stroke-width=".661" stroke-linecap="round" stroke-linejoin="round"/><path d="M45.9 94.757c-.018.498-.605 4.078 1.144 6.176 1.9 2.28 3.464-8.61 2.66-9.603-.856-1.06-3.176-1.42-3.804 3.427z" fill="url(#prefix__f)" stroke="#000" stroke-width=".661" transform="translate(-11.378 -61.843)"/><path d="M31.7 40.737l.898-.898.797.855M38.464 32.446l1.493-.793M37.4 37.774l1.2.616" fill="none" stroke="#000" stroke-width=".661" stroke-linecap="round" stroke-linejoin="round"/><path d="M15.681 32.167s8.999 3.357 13.918-6.56c0 0 2.978 2.7.879 6.584 0 0 12-5.848 6.786-14.49 0 0-2.547 10.512 4.543 13.633 9.206 4.052-1.068-15.505-1.393-15.675 0 0-29.799-7.904-24.98 13.247" fill="#157def"/><path d="M18.537 27.31s-2.462 1.806-2.437 4.104c.026 2.297 4.325 2.849 4.746.537.42-2.312-.745-4.451-.745-4.451" fill="none" stroke="#000" stroke-width="2.533" stroke-linecap="round"/><path d="M29.912 89.159s-2.462 1.806-2.436 4.103c.025 2.298 4.325 2.849 4.745.537.421-2.312-.745-4.45-.745-4.45" fill="none" stroke="url(#prefix__g)" stroke-width="1.324" stroke-linecap="round" transform="translate(-11.378 -61.843)"/><path d="M42.554 25.79s-1.661 2.117-1.095 4.06c.567 1.944 4.347 1.392 4.156-.67-.192-2.061-1.689-3.6-1.689-3.6" fill="none" stroke="#000" stroke-width="2.233" stroke-linecap="round"/><path d="M53.93 87.638s-1.66 2.117-1.094 4.06c.567 1.945 4.347 1.393 4.156-.67-.192-2.061-1.689-3.6-1.689-3.6" fill="none" stroke="url(#prefix__h)" stroke-width="1.167" stroke-linecap="round" transform="translate(-11.378 -61.843)"/><path d="M27.077 37.206l-1.298-.738M26.477 38.236l-1.144.461" fill="none" stroke="#000" stroke-width=".661" stroke-linecap="round" stroke-linejoin="round"/><path d="M26.477 38.236s2.102-2.853 4.787-.93" fill="none" stroke="#000" stroke-width=".661" stroke-linecap="round"/><path d="M29.93 43.807l4.591-.095s-1.306.988-2.447.962c-1.141-.026-2.144-.867-2.144-.867z" fill="none" stroke="#000" stroke-width=".661" stroke-linecap="round" stroke-linejoin="round"/></svg>