<?xml version="1.0" encoding="UTF-8" standalone="no"?>
<svg
   fill="none"
   height="32"
   viewBox="0 0 32 32"
   width="32"
   version="1.1"
   id="svg113"
   sodipodi:docname="jacekpoz revolt.svg"
   inkscape:version="1.2 (dc2aedaf03, 2022-05-15)"
   inkscape:export-filename="jacekpoz revolt.png"
   inkscape:export-xdpi="1800"
   inkscape:export-ydpi="1800"
   xmlns:inkscape="http://www.inkscape.org/namespaces/inkscape"
   xmlns:sodipodi="http://sodipodi.sourceforge.net/DTD/sodipodi-0.dtd"
   xmlns="http://www.w3.org/2000/svg"
   xmlns:svg="http://www.w3.org/2000/svg">
  <defs
     id="defs117" />
  <sodipodi:namedview
     id="namedview115"
     pagecolor="#505050"
     bordercolor="#ffffff"
     borderopacity="1"
     inkscape:showpageshadow="0"
     inkscape:pageopacity="0"
     inkscape:pagecheckerboard="1"
     inkscape:deskcolor="#505050"
     showgrid="false"
     inkscape:zoom="37.28125"
     inkscape:cx="9.0796312"
     inkscape:cy="16"
     inkscape:window-width="2560"
     inkscape:window-height="1399"
     inkscape:window-x="1920"
     inkscape:window-y="41"
     inkscape:window-maximized="1"
     inkscape:current-layer="g111" />
  <clipPath
     id="a">
    <path
       d="m0 0h32v32h-32z"
       id="path90" />
  </clipPath>
  <g
     clip-path="url(#a)"
     id="g111">
    <path
       d="m31.1028 20.9925c0 2.0091-.5252 3.4351-1.3444 4.4745-.8271 1.0495-2.0166 1.7841-3.4762 2.2907-2.9616 1.0282-6.7719 1.0379-10.1824 1.0379-3.4093 0-7.27255-.0094-10.28664-1.0393-1.48698-.5081-2.7015-1.2447-3.54601-2.2958-.83532-1.0397-1.370401-2.4634-1.370401-4.468 0-3.748.807291-8.3097 3.108411-11.90376 2.26699-3.54072 6.01294-6.19919 12.09464-6.19919 5.7647 0 9.4692 2.66321 11.7712 6.23125 2.3312 3.6131 3.2318 8.1799 3.2318 11.8717z"
       fill="#fbc546"
       stroke="#000"
       stroke-width="1.7935"
       id="path93" />
    <g
       clip-rule="evenodd"
       fill-rule="evenodd"
       id="g109">
      <path
         d="m19.4545 22.4125c.4709 0 .8531.3822.8531.8531 0 .471-.3822.8532-.8531.8532h-6.8253c-.4709 0-.8531-.3822-.8531-.8532 0-.4709.3822-.8531.8531-.8531z"
         fill="#593604"
         id="path95" />
      <path
         d="m27.1329 19.853c0-.9427-.7636-1.7063-1.7063-1.7063-1.0426 0-2.3701 0-3.4126 0-.9428 0-1.7064.7636-1.7064 1.7063 0 .9428.7636 1.7064 1.7064 1.7064h3.4126c.9427 0 1.7063-.7636 1.7063-1.7064z"
         fill="#ed6b44"
         id="path97" />
      <path
         d="m11.7761 19.853c0-.9427-.7636-1.7063-1.7064-1.7063-1.04251 0-2.37002 0-3.41258 0-.94274 0-1.70631.7636-1.70631 1.7063 0 .9428.76357 1.7064 1.70631 1.7064h3.41258c.9428 0 1.7064-.7636 1.7064-1.7064z"
         fill="#ed6b44"
         id="path99" />
      <path
         d="m 6.498,18.9998 c 1.0178,0 1.9938,-0.4044 2.7139,-1.1236 0.7192,-0.72 1.1236,-1.696 1.1236,-2.7139 0,-0.2841 0,-0.5707 0,-0.8548 0,-2.1201 -1.7191,-3.8392 -3.8392,-3.8392 -8e-4,0 -8e-4,0 -0.0017,0 -1.01781,0 -1.99382,0.4044 -2.71389,1.1236 -0.71921,0.72 -1.12361,1.696 -1.12361,2.7139 v 0.8548 c 0,2.1201 1.71912,3.8392 3.8392,3.8392 z"
         fill="#ffffff"
         id="path101" />
      <path
         d="m 5.21658,14.7256 c 0,-0.9376 0.76017,-1.6978 1.69782,-1.6978 h 0.017 c 0.9376,0 1.6978,0.7602 1.6978,1.6978 v 0.0026 c 0,0.9376 -0.7602,1.6978 -1.6978,1.6978 -0.0059,0 -0.0111,0 -0.017,0 -0.93765,0 -1.69782,-0.7602 -1.69782,-1.6978 0,-9e-4 0,-0.0017 0,-0.0026 z"
         fill="#000000"
         id="path103" />
      <path
         d="m 25.5857,18.9998 c -1.0178,0 -1.9939,-0.4044 -2.7139,-1.1236 -0.7192,-0.72 -1.1236,-1.696 -1.1236,-2.7139 0,-0.2849 0,-0.5716 0,-0.8565 0,-1.0179 0.4044,-1.9939 1.1236,-2.7139 0.72,-0.7192 1.6961,-1.1236 2.7139,-1.1236 h 0.0034 c 1.0178,0 1.9938,0.4044 2.7139,1.1236 0.7192,0.72 1.1236,1.696 1.1236,2.7139 v 0.8548 c 0,2.1201 -1.7191,3.8392 -3.8392,3.8392 -9e-4,0 -9e-4,0 -0.0017,0 z"
         fill="#ffffff"
         id="path105" />
      <path
         d="m 26.8671,14.7256 c 0,-0.9376 -0.7602,-1.6978 -1.6978,-1.6978 -0.006,0 -0.0111,0 -0.017,0 -0.9377,0 -1.6978,0.7602 -1.6978,1.6978 v 0.0026 c 0,0.9376 0.7601,1.6978 1.6978,1.6978 h 0.017 c 0.9376,0 1.6978,-0.7602 1.6978,-1.6978 0,-9e-4 0,-0.0017 0,-0.0026 z"
         fill="#000000"
         id="path107" />
    </g>
  </g>
</svg>
