<svg fill="none" height="32" width="32" xmlns="http://www.w3.org/2000/svg"><clipPath id="prefix__a"><path d="M0 0h32v32H0z"/></clipPath><g clip-path="url(#prefix__a)"><path d="M31.103 20.992c0 2.01-.525 3.436-1.345 4.475-.827 1.05-2.016 1.784-3.476 2.29-2.961 1.029-6.772 1.039-10.182 1.039s-7.273-.01-10.287-1.04c-1.487-.508-2.701-1.244-3.546-2.296-.835-1.04-1.37-2.463-1.37-4.468 0-3.748.807-8.31 3.108-11.903 2.267-3.541 6.013-6.2 12.095-6.2 5.765 0 9.469 2.664 11.771 6.232 2.331 3.613 3.232 8.18 3.232 11.871z" fill="#fbc546" stroke="#000" stroke-width="1.794"/><g clip-rule="evenodd" fill-rule="evenodd"><path d="M19.454 22.413a.853.853 0 010 1.706H12.63a.853.853 0 010-1.706z" fill="#593604"/><path d="M27.133 19.853c0-.943-.764-1.706-1.706-1.706h-3.413a1.706 1.706 0 100 3.412h3.413c.942 0 1.706-.763 1.706-1.706zM11.776 19.853c0-.943-.764-1.706-1.706-1.706H6.657a1.706 1.706 0 100 3.412h3.413c.942 0 1.706-.763 1.706-1.706z" fill="#ed6b44"/><path d="M6.498 19a3.84 3.84 0 003.837-3.838v-.855a3.84 3.84 0 00-3.839-3.839h-.001a3.84 3.84 0 00-3.838 3.838v.855A3.84 3.84 0 006.497 19z" fill="#fff"/><path d="M5.217 14.726c0-.938.76-1.698 1.697-1.698h.017c.938 0 1.698.76 1.698 1.698v.002c0 .938-.76 1.698-1.698 1.698h-.017c-.937 0-1.697-.76-1.697-1.698v-.002z" fill="#000"/><path d="M25.586 19a3.84 3.84 0 01-3.837-3.838v-.856a3.84 3.84 0 013.837-3.838h.003a3.84 3.84 0 013.837 3.838v.855A3.84 3.84 0 0125.588 19h-.001z" fill="#fff"/><path d="M26.867 14.726c0-.938-.76-1.698-1.698-1.698h-.017c-.937 0-1.698.76-1.698 1.698v.002c0 .938.76 1.698 1.698 1.698h.017c.938 0 1.698-.76 1.698-1.698v-.002z" fill="#000"/></g></g></svg>